<?xml version="1.0" encoding="utf-8"?>
<!-- Generator: Adobe Illustrator 25.1.0, SVG Export Plug-In . SVG Version: 6.00 Build 0)  -->
<svg version="1.1" id="Layer_1" xmlns="http://www.w3.org/2000/svg" xmlns:xlink="http://www.w3.org/1999/xlink" x="0px" y="0px"
	 viewBox="0 0 70 40" style="enable-background:new 0 0 70 40;" xml:space="preserve">
<style type="text/css">
	.st0{fill:#404959;enable-background:new    ;}
</style>
<g>
	<path class="st0" d="M0.3,21.8C0.1,21.4,0,21.1,0,20.7l0,0c0-0.5,0.2-0.9,0.5-1.2C0.8,19.2,1.3,19,1.7,19h4c0.5,0,1.1,0.3,1.4,0.7
		c0.2,0.3,0.3,0.7,0.3,1c0,1-0.9,1.8-1.8,1.8h-4C1.2,22.5,0.7,22.2,0.3,21.8L0.3,21.8z"/>
	<path class="st0" d="M2,40c-0.8,0-1.4-0.5-1.6-1.2c-0.2-0.5-0.2-0.9,0.1-1.3c0.2-0.4,0.5-0.8,1-0.9l6.2-2.1
		c0.2-0.1,0.4-0.1,0.5-0.1c0.8,0,1.4,0.5,1.6,1.2c0.3,0.9-0.2,1.9-1.1,2.3L2.5,40C2.3,39.9,2.1,40,2,40L2,40z"/>
	<path class="st0" d="M7,8.1c-0.2,0-0.4,0-0.5-0.1l-5-2.3c0,0-0.1,0-0.2-0.1C0.2,5.2-0.2,4.2,0.2,3.3c0.3-0.6,0.9-1.1,1.6-1.1
		c0.2,0,0.5,0.1,0.7,0.2l4.9,2.3C8.3,5,8.8,6,8.5,7C8.4,7.6,7.7,8.1,7,8.1L7,8.1z"/>
	<path class="st0" d="M69.7,21.8c0.2-0.3,0.3-0.7,0.3-1.1l0,0c0-0.5-0.2-0.9-0.5-1.2c-0.3-0.3-0.8-0.5-1.2-0.5h-4
		c-0.5,0-1.1,0.3-1.4,0.7c-0.2,0.3-0.3,0.7-0.3,1c0,1,0.9,1.8,1.8,1.8h4C68.8,22.5,69.3,22.2,69.7,21.8L69.7,21.8z"/>
	<path class="st0" d="M68,40c0.8,0,1.4-0.5,1.6-1.2c0.2-0.5,0.2-0.9-0.1-1.3c-0.2-0.4-0.5-0.8-1-0.9l-6.3-2.1
		c-0.2-0.1-0.4-0.1-0.5-0.1c-0.8,0-1.4,0.5-1.6,1.2c-0.3,0.9,0.2,1.9,1.1,2.3l6.2,2.1C67.7,39.9,67.9,40,68,40L68,40z"/>
	<path class="st0" d="M63,8.1c0.2,0,0.4,0,0.5-0.1l5.1-2.3c0,0,0.1,0,0.2-0.1c0.9-0.4,1.3-1.4,0.9-2.3c-0.3-0.6-0.9-1.1-1.6-1.1
		c-0.2,0-0.5,0.1-0.7,0.2l-5.1,2.3C61.4,5,60.9,6,61.2,7C61.6,7.6,62.3,8.1,63,8.1L63,8.1z"/>
	<path class="st0" d="M55.1,17.2c0.7-0.7,0.8-1.9,0.1-2.6c-0.3-0.3-0.7-0.5-1.1-0.5l-12-1.7c-0.1,0-0.2-0.1-0.2-0.2L36.6,1.5
		c-0.3-0.6-0.9-1.1-1.6-1.1s-1.3,0.5-1.6,1.1l-5.3,10.8c0,0.1-0.1,0.2-0.2,0.2L16,14.2c-0.5,0.1-0.9,0.3-1.2,0.7s-0.4,0.9-0.4,1.3
		c0.1,0.4,0.2,0.8,0.5,1.1l8.6,8.3c0.1,0.1,0.1,0.2,0.1,0.2l-2,11.9c-0.2,1,0.5,1.9,1.5,2.1c0.1,0,0.2,0,0.3,0
		c0.3,0,0.6-0.1,0.9-0.2L35,33.9h0.1c0,0,0.1,0,0.2,0l10.6,5.5c0.2,0.2,0.5,0.2,0.9,0.2c0.5,0,0.9-0.2,1.3-0.5
		c0.3-0.3,0.5-0.8,0.5-1.3c0-0.1,0-0.2,0-0.3l-2-11.8c0-0.1,0-0.2,0.1-0.2L55.1,17.2z"/>
</g>
</svg>
