<?xml version="1.0" standalone="no"?>
<!DOCTYPE svg PUBLIC "-//W3C//DTD SVG 20010904//EN"
 "http://www.w3.org/TR/2001/REC-SVG-20010904/DTD/svg10.dtd">
<svg version="1.0" xmlns="http://www.w3.org/2000/svg"
 width="560.000000pt" height="560.000000pt" viewBox="0 0 560.000000 560.000000"
 preserveAspectRatio="xMidYMid meet">
<metadata>
Created by potrace 1.11, written by Peter Selinger 2001-2013
</metadata>
<g transform="translate(0.000000,560.000000) scale(0.100000,-0.100000)"
fill="#000000" stroke="none">
<path d="M2180 5593 c-8 -4 -33 -27 -55 -52 -83 -94 -1275 -1293 -1338 -1346
-97 -82 -176 -157 -374 -357 -145 -146 -151 -155 -218 -313 -7 -16 -20 -47
-30 -68 -16 -35 -17 -101 -1 -182 2 -11 7 -49 11 -85 3 -36 24 -135 46 -220
39 -151 51 -202 69 -305 5 -27 25 -138 45 -245 19 -107 38 -208 41 -225 21
-123 72 -393 105 -560 22 -110 42 -216 45 -235 3 -19 7 -42 10 -50 2 -8 6 -35
9 -60 21 -171 30 -203 87 -290 l55 -85 134 -39 c155 -44 330 -101 376 -122 17
-8 36 -14 41 -14 6 0 113 -39 239 -86 125 -47 379 -137 563 -199 184 -62 342
-115 350 -118 158 -61 624 -216 810 -270 202 -59 209 -58 321 43 45 41 94 85
108 98 120 106 302 282 626 604 209 207 405 400 435 428 238 222 304 285 371
355 42 44 106 112 143 150 66 70 84 101 208 363 l29 62 -36 130 c-19 71 -47
194 -61 272 -14 78 -36 187 -49 242 -29 125 -62 288 -71 353 -3 26 -8 51 -10
54 -2 4 -6 27 -9 50 -5 36 -26 125 -70 289 -8 28 -43 205 -49 244 -4 21 -8 48
-11 60 -2 12 -7 38 -10 58 -2 21 -10 59 -16 85 -6 27 -13 59 -15 73 -3 14 -9
41 -14 60 -8 32 -52 248 -64 312 -5 32 -30 85 -54 115 -10 13 -70 42 -147 71
-71 27 -174 68 -229 91 -54 22 -107 41 -117 41 -10 0 -20 4 -23 9 -3 5 -16 11
-28 14 -53 11 -308 105 -498 184 -113 46 -252 100 -310 119 -58 20 -114 39
-125 44 -11 5 -72 27 -135 49 -63 22 -207 77 -320 121 -401 159 -746 290 -760
289 -8 0 -22 -3 -30 -6z m415 -243 c55 -38 186 -124 290 -191 105 -67 291
-191 415 -274 124 -83 268 -175 320 -205 52 -30 154 -91 225 -135 138 -87 314
-168 343 -158 9 3 95 40 191 81 167 71 302 122 326 122 6 0 19 -6 28 -12 32
-25 -35 -79 -258 -208 -115 -67 -215 -126 -222 -132 -7 -6 -9 -28 -6 -61 5
-55 94 -227 281 -547 109 -187 182 -312 182 -315 0 -1 46 -83 101 -181 119
-209 107 -188 289 -514 79 -140 167 -288 196 -329 46 -64 51 -76 42 -97 l-11
-24 -36 21 c-31 18 -179 210 -241 314 -92 152 -580 897 -711 1085 -25 36 -81
124 -124 195 -107 177 -171 255 -210 255 -7 0 -340 -864 -434 -1125 -58 -164
-151 -433 -156 -455 -2 -8 -19 -62 -38 -120 -20 -58 -54 -166 -77 -240 -23
-74 -66 -202 -95 -285 -30 -82 -66 -192 -82 -243 -15 -50 -30 -92 -34 -92 -11
0 -303 292 -360 360 -107 128 -218 243 -510 525 -74 72 -163 162 -198 200
-124 136 -308 331 -463 489 -86 89 -190 201 -232 249 -73 87 -75 90 -71 135 3
42 6 47 27 46 52 -3 72 -12 105 -50 19 -21 74 -79 122 -129 48 -49 127 -135
176 -190 50 -55 92 -102 95 -105 3 -3 43 -48 90 -100 47 -52 92 -101 100 -110
30 -32 195 -213 211 -231 9 -11 59 -65 110 -121 93 -101 105 -114 184 -199 23
-24 86 -93 140 -154 55 -60 105 -115 110 -121 6 -6 27 -31 46 -54 18 -23 39
-47 44 -54 6 -6 28 -33 50 -61 22 -27 47 -57 55 -67 8 -9 35 -41 60 -72 49
-60 58 -65 66 -39 3 10 39 101 79 203 99 250 137 367 250 760 98 342 198 673
285 950 41 131 96 344 115 448 2 15 9 42 14 60 5 17 9 32 8 33 -23 9 -73 6
-162 -12 -60 -11 -119 -23 -130 -25 -11 -2 -78 -15 -150 -29 -71 -14 -186 -37
-255 -50 -69 -13 -136 -27 -150 -30 -211 -43 -324 -68 -590 -127 -173 -38
-326 -72 -340 -74 -93 -18 -512 -111 -644 -143 -194 -47 -201 -54 -221 -201
-3 -25 -10 -70 -15 -100 -5 -30 -12 -73 -15 -95 -2 -22 -7 -51 -9 -65 -3 -14
-7 -47 -11 -75 -17 -141 -41 -260 -100 -505 -25 -100 -37 -174 -50 -305 -3
-33 -8 -71 -10 -85 -2 -14 -11 -72 -20 -130 -9 -58 -18 -116 -21 -130 -2 -14
-7 -43 -10 -65 -3 -22 -19 -98 -35 -170 -15 -71 -31 -148 -34 -170 -3 -22 -8
-51 -11 -65 -2 -14 -7 -38 -9 -55 -3 -16 -7 -43 -10 -60 -2 -16 -7 -48 -11
-70 -6 -39 -17 -55 -41 -55 -27 0 -30 36 -12 155 10 66 20 145 23 175 4 30 8
64 10 75 2 11 7 49 11 85 4 36 9 72 10 80 2 8 6 35 9 60 3 25 8 56 11 70 9 47
64 385 69 425 3 22 8 69 11 105 8 88 15 146 31 265 1 11 10 79 19 150 14 110
105 605 121 656 2 9 -6 30 -20 46 l-24 28 -293 -1 c-162 -1 -313 -5 -335 -8
-33 -4 -46 -1 -60 15 -9 10 -15 20 -13 22 2 1 14 10 25 20 25 21 40 24 159 31
50 3 144 8 210 12 66 4 131 8 145 8 14 1 31 7 38 14 8 7 30 25 50 40 21 15 39
30 42 33 3 3 59 49 125 103 132 107 126 101 183 206 189 350 354 638 462 810
65 102 141 230 170 285 125 237 121 231 147 233 16 1 27 -5 35 -23 10 -21 -1
-47 -92 -227 -56 -112 -106 -207 -110 -213 -9 -12 -82 -150 -188 -355 -68
-131 -158 -291 -264 -470 -73 -121 -160 -312 -149 -323 10 -10 25 -8 156 18
192 38 397 80 487 99 62 13 133 27 158 31 25 3 58 8 74 11 15 4 45 7 65 9 20
2 106 19 191 39 86 20 246 54 355 75 110 22 308 63 440 91 230 48 261 55 313
65 13 2 31 6 40 9 9 3 35 7 57 11 43 6 155 46 155 55 0 3 -14 14 -30 24 -26
15 -143 117 -295 257 -44 41 -275 217 -450 344 -60 43 -223 164 -362 267 -193
145 -254 196 -264 221 -7 17 -14 35 -16 38 -2 4 24 0 59 -8 49 -11 85 -29 163
-83z m2692 -3350 c1 -8 -12 -32 -30 -53 -31 -36 -44 -42 -233 -98 -284 -85
-506 -161 -668 -228 -78 -33 -210 -80 -294 -105 -271 -83 -776 -256 -802 -275
-27 -20 -28 -29 -17 -126 4 -33 10 -89 13 -125 3 -36 11 -76 17 -90 14 -33 28
-102 43 -210 3 -19 11 -75 19 -125 8 -49 17 -121 21 -160 3 -38 8 -78 10 -88
1 -10 6 -55 10 -100 5 -67 4 -85 -9 -95 -12 -10 -17 -8 -30 11 -8 13 -18 39
-21 58 -3 19 -14 73 -25 120 -18 76 -87 409 -97 469 -3 14 -14 70 -26 125 -11
55 -26 125 -32 155 -10 49 -16 57 -51 77 -28 15 -51 21 -80 18 -22 -3 -65 -7
-95 -10 -30 -3 -80 -8 -110 -10 -31 -3 -71 -8 -90 -10 -19 -3 -98 -7 -175 -10
-201 -7 -413 -16 -465 -20 -25 -2 -88 -6 -140 -9 -52 -3 -140 -9 -195 -12 -55
-4 -107 -7 -115 -6 -8 0 -94 -11 -190 -24 -96 -14 -195 -26 -220 -28 -118 -10
-207 -18 -230 -22 -15 -2 -39 7 -63 23 l-39 27 27 22 c20 16 47 23 105 28 43
4 91 9 106 11 68 8 167 15 279 20 141 7 212 12 280 20 28 4 66 8 85 10 19 2
58 7 85 10 28 3 68 8 90 10 22 2 60 6 85 9 25 3 74 8 110 11 67 5 146 13 190
20 14 2 61 7 105 10 44 4 91 8 105 10 14 2 52 7 85 10 97 9 217 21 295 30 19
2 64 7 100 11 35 3 107 20 160 36 52 16 111 34 130 40 138 40 536 183 798 287
83 33 198 74 254 91 147 45 341 110 508 170 141 51 365 109 405 106 11 0 21
-8 22 -16z"/>
</g>
</svg>
