<?xml version="1.0" standalone="no"?>
<!DOCTYPE svg PUBLIC "-//W3C//DTD SVG 20010904//EN"
 "http://www.w3.org/TR/2001/REC-SVG-20010904/DTD/svg10.dtd">
<svg version="1.0" xmlns="http://www.w3.org/2000/svg"
 width="545.000000pt" height="545.000000pt" viewBox="0 0 545.000000 545.000000"
 preserveAspectRatio="xMidYMid meet">
<metadata>
Created by potrace 1.11, written by Peter Selinger 2001-2013
</metadata>
<g transform="translate(0.000000,545.000000) scale(0.100000,-0.100000)"
fill="#000000" stroke="none">
<path d="M1763 5423 c-7 -2 -41 -44 -75 -91 -117 -162 -470 -621 -717 -931
-90 -113 -210 -267 -267 -341 -56 -74 -116 -150 -132 -167 -120 -132 -176
-201 -318 -386 l-162 -210 -43 -140 -42 -141 15 -70 c28 -125 64 -249 103
-346 51 -130 115 -319 165 -480 23 -74 45 -146 50 -160 5 -14 25 -79 45 -145
20 -66 79 -253 132 -415 52 -162 108 -340 124 -395 16 -55 38 -129 49 -165 11
-36 20 -69 20 -74 0 -9 67 -92 115 -143 22 -23 42 -33 75 -37 25 -3 56 -8 70
-11 14 -3 70 -12 125 -21 108 -17 430 -87 616 -134 128 -32 314 -73 579 -126
96 -19 258 -53 360 -76 102 -22 192 -42 200 -43 121 -27 410 -86 434 -90 17
-2 58 -9 91 -14 33 -6 78 -13 100 -17 22 -3 59 -9 83 -14 57 -10 116 8 150 46
15 16 54 61 87 99 33 39 62 72 66 75 12 10 265 319 364 444 153 193 194 246
287 366 81 106 248 311 398 490 129 153 181 220 276 353 l106 148 60 179 60
179 -51 123 c-28 68 -68 179 -89 248 -22 69 -58 179 -82 245 -37 105 -99 295
-147 450 -8 28 -40 113 -70 190 -30 77 -71 190 -90 250 -70 222 -102 323 -149
460 -26 77 -59 174 -73 215 -33 96 -83 154 -144 165 -50 9 -32 5 -187 45 -69
18 -145 38 -170 45 -25 8 -124 30 -220 50 -96 20 -290 68 -430 105 -140 38
-343 87 -450 110 -107 22 -240 52 -294 66 -55 14 -107 28 -115 30 -9 2 -200
51 -426 109 -395 101 -435 109 -462 98z m427 -189 c58 -30 157 -80 220 -110
241 -117 578 -285 655 -326 44 -24 105 -54 135 -67 58 -24 105 -45 157 -67 17
-8 33 -14 36 -14 3 0 66 -29 142 -65 75 -36 185 -80 244 -96 l107 -31 182 106
c197 115 296 166 321 166 9 0 22 -4 30 -9 30 -19 -33 -84 -196 -206 -225 -170
-254 -195 -249 -214 3 -9 8 -31 11 -49 6 -33 150 -242 345 -497 103 -135 473
-635 748 -1010 72 -99 154 -204 182 -232 50 -53 57 -67 41 -91 -7 -11 -14 -11
-42 1 -29 12 -67 50 -234 231 -5 6 -36 43 -68 81 -81 97 -86 103 -137 165 -25
30 -58 71 -75 91 -43 51 -62 74 -135 164 -35 44 -67 82 -70 85 -3 3 -46 52
-95 110 -50 58 -94 110 -100 116 -5 6 -37 42 -70 80 -33 37 -80 91 -105 119
-56 63 -97 113 -198 240 -135 169 -202 222 -221 173 -7 -18 -175 -683 -197
-780 -5 -23 -8 -36 -33 -133 -11 -44 -22 -91 -25 -105 -3 -14 -28 -125 -56
-247 -27 -122 -52 -234 -54 -250 -3 -15 -21 -109 -40 -208 -20 -99 -38 -196
-41 -215 -3 -19 -12 -66 -20 -105 -8 -38 -16 -83 -19 -100 -2 -16 -13 -68 -24
-115 -25 -103 -59 -271 -67 -324 -3 -22 -8 -42 -10 -45 -8 -7 -286 199 -336
248 -8 9 -53 50 -99 91 -46 41 -91 82 -100 90 -9 8 -32 27 -52 42 -20 15 -42
33 -50 40 -38 37 -125 103 -228 173 -93 64 -313 242 -470 379 -66 58 -313 259
-404 329 -55 43 -137 111 -182 152 -44 40 -94 85 -110 98 -26 22 -30 33 -32
79 l-1 53 43 -3 c36 -3 57 -14 112 -60 112 -91 309 -255 314 -262 3 -3 39 -35
80 -70 41 -36 77 -68 80 -71 3 -3 57 -50 120 -104 63 -54 140 -119 170 -145
30 -26 107 -91 170 -145 63 -53 126 -107 140 -119 14 -12 104 -89 200 -171
173 -147 217 -187 373 -335 130 -124 181 -170 187 -170 4 0 99 356 106 396 1
7 10 45 19 85 9 41 19 83 21 94 8 32 49 278 59 345 5 34 18 116 21 135 3 11 7
36 10 55 3 19 14 87 24 150 10 63 21 129 24 145 2 17 7 48 11 70 3 22 27 153
52 290 25 138 47 261 49 275 3 14 9 48 14 75 5 28 12 82 16 120 3 39 7 81 9
95 1 14 6 61 10 105 4 44 9 88 11 99 3 16 -2 18 -35 13 -52 -7 -798 -249
-1126 -365 -77 -27 -239 -84 -360 -126 -121 -43 -227 -80 -235 -83 -8 -3 -19
-7 -25 -9 -40 -10 -565 -198 -688 -246 -17 -6 -35 -26 -47 -50 -16 -34 -19
-72 -24 -311 -6 -255 -13 -417 -21 -459 -2 -11 -7 -54 -11 -96 -3 -42 -8 -86
-10 -97 -7 -36 -14 -216 -19 -505 -3 -157 -7 -296 -10 -310 -3 -23 -9 -85 -20
-220 -2 -30 -7 -120 -10 -200 -4 -121 -8 -147 -22 -157 -13 -10 -20 -10 -33 2
-15 13 -17 36 -14 178 6 366 16 724 20 757 2 19 4 112 3 205 -2 360 0 634 7
735 4 58 8 121 9 140 1 19 6 82 10 140 4 58 9 122 10 142 2 28 -3 42 -20 58
-24 23 -25 23 -175 6 -19 -3 -66 -7 -105 -11 -91 -9 -117 -12 -255 -36 -165
-28 -164 -27 -177 -17 -18 14 -16 23 10 51 14 16 39 27 72 32 28 5 55 9 60 11
6 1 27 4 47 8 21 3 57 10 80 15 47 11 81 17 143 26 114 18 119 21 213 117 221
229 224 232 268 341 23 56 76 188 119 292 42 105 101 249 130 320 29 72 81
186 115 255 59 118 116 255 190 452 24 63 39 89 56 97 21 9 26 7 40 -14 15
-23 15 -29 1 -68 -9 -23 -32 -87 -52 -142 -50 -137 -66 -181 -120 -320 -26
-66 -76 -197 -110 -291 -35 -94 -105 -267 -155 -385 -93 -217 -170 -420 -170
-451 0 -9 4 -19 9 -22 5 -3 184 52 397 123 214 71 433 141 488 156 54 14 152
46 216 70 65 24 279 98 476 164 578 193 757 256 798 281 l39 24 -51 25 c-28
14 -119 75 -203 134 -146 106 -308 203 -609 370 -165 91 -605 343 -634 363
-18 12 -56 63 -56 75 0 3 26 4 58 2 46 -3 78 -15 162 -59z m3088 -2997 c16
-19 -41 -102 -81 -118 -18 -7 -66 -28 -107 -47 -41 -18 -118 -52 -170 -74
-167 -71 -426 -201 -598 -301 -32 -18 -102 -52 -157 -76 -146 -64 -167 -73
-642 -302 -192 -92 -194 -94 -170 -196 9 -37 24 -99 32 -138 9 -38 23 -80 30
-92 27 -40 156 -508 191 -692 3 -14 7 -27 9 -30 2 -4 -2 -17 -9 -30 l-13 -23
-19 20 c-10 11 -66 159 -122 329 -57 169 -106 315 -109 323 -4 8 -7 17 -7 20
-1 3 -23 69 -50 147 l-49 141 -43 12 c-36 10 -56 9 -121 -6 -43 -9 -83 -19
-89 -20 -7 -1 -45 -10 -85 -19 -101 -23 -193 -41 -257 -50 -122 -17 -301 -45
-313 -49 -8 -3 -32 -7 -54 -10 -22 -3 -60 -9 -85 -15 -25 -5 -61 -13 -80 -16
-19 -3 -80 -14 -135 -25 -55 -10 -140 -26 -190 -35 -49 -10 -146 -33 -215 -52
-69 -19 -136 -36 -149 -39 -12 -3 -51 -11 -85 -19 -33 -8 -72 -16 -86 -19 -14
-2 -54 -11 -90 -19 -64 -13 -67 -13 -103 10 l-38 24 28 23 c28 23 207 68 398
101 17 3 41 7 55 10 14 3 41 8 60 11 77 12 232 45 350 74 69 16 134 32 145 34
11 2 40 9 65 15 25 7 56 14 70 17 14 3 45 10 70 15 25 6 52 12 60 14 275 62
533 121 633 144 70 17 141 33 157 36 33 6 95 29 185 70 33 15 105 48 160 73
119 54 478 236 660 335 170 93 363 187 382 187 4 0 121 57 262 127 141 70 310
146 376 169 140 50 130 48 143 31z"/>
</g>
</svg>
