<?xml version="1.0" standalone="no"?>
<!DOCTYPE svg PUBLIC "-//W3C//DTD SVG 20010904//EN"
 "http://www.w3.org/TR/2001/REC-SVG-20010904/DTD/svg10.dtd">
<svg version="1.0" xmlns="http://www.w3.org/2000/svg"
 width="901.000000pt" height="901.000000pt" viewBox="0 0 901.000000 901.000000"
 preserveAspectRatio="xMidYMid meet">
<metadata>
Created by potrace 1.11, written by Peter Selinger 2001-2013
</metadata>
<g transform="translate(0.000000,901.000000) scale(0.100000,-0.100000)"
fill="#000000" stroke="none">
<path d="M5335 7459 c-21 -10 -136 -160 -222 -289 -28 -41 -108 -149 -178
-240 -116 -149 -190 -238 -366 -440 -31 -36 -79 -100 -108 -142 -28 -43 -53
-78 -55 -78 -3 0 -36 60 -75 133 -39 74 -77 140 -86 147 -15 12 -60 11 -195
-5 -41 -5 -168 -15 -260 -20 -109 -7 -213 -15 -255 -20 -43 -5 -169 -13 -440
-30 -55 -3 -129 -8 -165 -10 -36 -2 -117 -7 -180 -10 -63 -4 -131 -8 -150 -10
-131 -13 -238 -19 -395 -20 -162 -1 -382 -12 -424 -20 -9 -2 -64 -6 -121 -10
-137 -8 -122 -5 -220 -50 -188 -88 -178 -80 -263 -205 -43 -63 -112 -181 -152
-261 -40 -80 -201 -359 -357 -620 -157 -261 -318 -532 -358 -604 -41 -71 -97
-166 -125 -210 -148 -232 -140 -217 -149 -294 -3 -25 -8 -63 -12 -86 -5 -39
-1 -49 86 -186 93 -145 280 -472 361 -629 34 -68 199 -357 353 -621 12 -20 56
-99 100 -175 374 -660 493 -851 548 -883 36 -21 44 -21 305 -15 147 3 302 7
343 8 108 5 318 17 367 21 22 2 97 6 165 10 67 4 125 8 128 10 10 6 313 21
615 30 293 9 406 16 492 30 12 2 57 7 100 10 79 7 114 18 233 72 36 16 95 42
132 57 l66 28 62 126 c34 69 92 175 129 236 37 61 93 158 124 216 83 156 61
144 207 110 69 -15 166 -39 215 -53 90 -25 270 -60 375 -72 154 -17 160 -18
280 -41 47 -9 132 -31 190 -49 101 -32 128 -39 195 -51 17 -2 55 -9 85 -14 30
-5 78 -12 105 -15 159 -17 161 -17 258 -43 84 -23 199 -49 252 -58 20 -3 78
-16 129 -30 50 -13 109 -29 131 -34 95 -25 171 52 530 538 103 140 120 160
221 271 91 99 183 214 242 300 31 46 91 123 133 170 41 47 102 122 134 166 32
44 95 123 140 175 45 52 105 131 135 175 29 44 85 118 124 165 39 46 99 122
133 167 l62 83 -6 98 c-5 86 -11 111 -55 222 -53 132 -64 167 -98 295 -11 44
-24 89 -29 100 -5 11 -19 45 -31 75 -11 30 -25 64 -30 75 -5 11 -28 76 -51
145 -22 69 -56 163 -74 210 -122 316 -181 476 -202 550 -37 128 -143 439 -172
505 -5 11 -21 54 -36 95 -20 58 -59 139 -80 167 -1 3 -152 32 -190 38 -55 8
-87 17 -165 49 -47 18 -105 37 -130 40 -40 5 -130 21 -185 31 -211 40 -389 76
-445 91 -8 2 -109 30 -223 63 -114 33 -222 62 -240 64 -70 11 -147 29 -247 57
-58 16 -121 31 -140 34 -19 4 -47 8 -61 10 -34 5 -535 128 -656 161 -103 28
-100 27 -128 14z m280 -140 c28 -1 55 -5 60 -9 6 -4 26 -13 45 -20 103 -40
500 -237 680 -337 80 -45 177 -94 215 -108 105 -40 148 -61 217 -103 67 -41
95 -54 198 -97 36 -15 99 -44 140 -65 42 -21 91 -41 110 -44 19 -3 67 -10 105
-16 l70 -11 106 55 c58 30 139 76 179 102 71 45 202 114 218 114 5 0 16 -6 26
-13 17 -12 17 -15 -8 -51 -14 -21 -72 -73 -128 -114 -57 -42 -108 -81 -115
-87 -7 -5 -52 -41 -102 -79 l-90 -68 3 -58 c2 -54 6 -62 68 -141 36 -46 98
-120 137 -164 39 -44 90 -111 113 -150 23 -38 71 -108 108 -155 37 -47 109
-143 161 -215 51 -71 139 -186 194 -255 56 -69 189 -242 297 -385 108 -143
212 -281 232 -306 23 -29 34 -52 30 -63 -14 -35 -56 -12 -145 80 -135 139
-168 177 -247 283 -102 137 -178 228 -276 331 -45 47 -101 115 -126 150 -25
35 -90 112 -146 170 -56 58 -152 168 -214 245 -62 76 -165 195 -229 263 -117
125 -168 165 -175 140 -22 -73 -81 -320 -101 -423 -15 -71 -42 -184 -61 -250
-19 -66 -44 -167 -55 -225 -11 -58 -22 -115 -25 -127 -2 -12 -23 -102 -45
-200 -23 -98 -56 -245 -75 -328 -19 -82 -45 -193 -58 -245 -23 -87 -47 -208
-60 -301 -3 -20 -24 -125 -46 -235 -43 -209 -48 -241 -49 -287 l-1 -27 -42 21
c-40 21 -78 46 -138 94 -13 11 -67 61 -120 111 -52 49 -122 108 -155 130 -33
21 -149 111 -259 199 -109 88 -251 201 -315 250 -64 50 -135 108 -157 130
-120 120 -291 261 -302 250 -3 -2 30 -65 73 -140 43 -74 76 -138 73 -140 -3
-3 -11 7 -19 23 -7 15 -27 50 -43 77 -112 196 -246 445 -246 460 0 5 191 -146
210 -165 3 -3 84 -68 180 -145 155 -124 204 -164 244 -200 6 -6 60 -53 121
-105 60 -52 116 -102 125 -110 9 -8 42 -37 74 -65 32 -27 64 -55 70 -60 6 -6
45 -39 86 -75 41 -35 93 -81 115 -101 22 -21 50 -46 61 -56 12 -10 78 -72 148
-138 139 -131 166 -149 166 -110 0 19 31 155 55 245 11 38 45 210 51 250 6 46
9 65 18 110 2 14 7 48 10 75 4 28 8 61 11 75 2 14 7 43 10 65 3 22 7 51 10 65
2 14 7 48 10 75 3 28 12 78 20 113 8 34 17 77 20 95 3 17 10 46 15 62 15 52
44 209 55 300 3 28 8 66 10 85 3 19 7 55 10 80 3 25 8 62 11 83 3 20 7 47 8
60 2 12 6 42 10 67 4 25 9 56 11 70 2 14 9 54 14 90 13 83 18 129 26 210 4 36
9 79 11 95 2 17 6 60 10 96 6 65 5 66 -19 71 -22 4 -404 -113 -462 -141 -11
-6 -58 -24 -105 -41 -47 -17 -96 -36 -110 -42 -14 -6 -128 -46 -255 -89 -273
-93 -386 -132 -560 -195 -71 -26 -236 -80 -365 -120 -254 -79 -352 -116 -358
-134 -2 -6 -26 26 -52 72 l-47 83 111 31 c61 18 165 50 231 73 66 23 217 74
335 112 118 39 280 97 360 129 80 31 183 70 230 85 47 15 144 50 215 77 140
54 299 106 572 187 159 48 263 91 263 111 0 4 -21 20 -46 35 -26 15 -85 54
-131 86 -46 33 -86 59 -88 59 -3 0 -27 16 -53 34 -26 19 -140 86 -252 149
-113 63 -239 135 -281 160 -42 24 -123 69 -180 98 -57 29 -180 100 -272 156
-92 57 -174 106 -181 109 -8 3 -28 23 -46 46 -25 31 -29 39 -14 35 11 -3 42
-7 69 -8z m-341 -102 c14 -20 12 -31 -18 -122 -51 -151 -103 -279 -156 -385
-26 -52 -62 -144 -80 -205 -60 -206 -156 -461 -240 -640 -23 -49 -50 -111 -59
-137 l-16 -47 -41 79 c-22 43 -38 77 -34 75 4 -2 21 33 40 78 18 45 64 156
103 247 38 91 85 206 104 255 19 50 48 119 65 155 37 79 100 227 161 375 25
61 64 150 86 197 33 72 45 89 68 97 2 1 9 -9 17 -22z m-1269 -740 c13 -10 16
-21 11 -40 -5 -20 -19 -30 -64 -47 -31 -12 -70 -27 -87 -35 -16 -7 -57 -23
-90 -35 -33 -13 -78 -31 -100 -40 -22 -10 -89 -36 -150 -58 -162 -60 -280
-106 -370 -142 -44 -18 -190 -70 -325 -116 -315 -106 -454 -164 -458 -190 -2
-15 30 -38 154 -109 183 -106 197 -113 374 -213 74 -42 185 -108 245 -148 61
-39 163 -100 229 -134 65 -34 173 -94 240 -133 183 -106 294 -170 361 -207
124 -68 303 -169 400 -225 98 -57 205 -102 205 -86 0 5 -6 26 -14 47 -7 22
-16 75 -20 119 -3 44 -8 89 -10 100 -3 17 -9 71 -22 190 -5 52 -96 478 -154
720 -9 37 -36 166 -46 225 -3 14 -10 43 -16 65 -5 22 -11 49 -13 60 -1 11 -10
60 -20 108 -15 73 -16 95 -6 128 l12 41 40 -53 c21 -29 39 -53 39 -54 0 -14
105 -408 155 -580 36 -126 88 -315 115 -420 27 -104 69 -247 93 -316 25 -70
59 -178 77 -240 17 -63 55 -162 83 -222 l51 -107 203 -66 c269 -86 335 -115
344 -147 15 -55 -66 -49 -502 42 l-85 18 -33 -39 c-32 -38 -45 -81 -92 -303
-6 -27 -15 -66 -19 -85 -5 -19 -22 -109 -40 -200 -17 -91 -54 -271 -81 -400
-28 -129 -59 -278 -69 -330 -16 -78 -96 -460 -104 -495 -8 -33 -16 -73 -20
-95 -2 -14 -9 -44 -15 -68 -12 -42 -19 -99 -22 -179 -2 -33 -8 -46 -26 -59
-14 -8 -26 -14 -27 -12 -19 26 -27 76 -21 140 6 71 8 91 19 188 3 25 8 65 11
90 3 25 10 70 15 100 5 30 12 78 15 105 3 28 8 59 10 70 3 11 7 38 10 60 4 22
13 83 21 135 21 135 56 383 70 500 2 19 6 51 9 70 3 19 8 55 10 80 3 25 7 61
10 80 2 19 7 60 10 90 5 45 41 268 49 305 19 82 25 206 11 238 l-11 27 -120
-61 c-299 -153 -723 -378 -969 -514 -267 -148 -233 -128 -605 -352 -173 -104
-346 -207 -385 -227 -38 -21 -118 -67 -176 -102 -59 -35 -112 -64 -118 -64 -6
0 -11 12 -12 28 0 15 -2 38 -4 52 -11 82 -18 244 -20 445 -3 235 -11 454 -19
490 -2 12 -7 48 -11 80 -4 33 -9 71 -11 85 -5 29 -11 181 -19 470 -7 276 -15
465 -21 525 -3 28 -7 144 -9 259 l-3 208 36 34 c20 19 39 34 43 34 19 0 53
-76 55 -124 5 -135 15 -510 19 -771 3 -159 8 -416 12 -570 8 -318 8 -899 1
-1023 -2 -46 -1 -85 2 -87 8 -5 291 137 435 218 50 28 99 55 110 61 11 6 31
19 45 28 14 9 169 108 345 220 344 220 423 269 755 473 118 72 271 173 340
223 69 51 136 101 150 111 24 18 25 19 7 39 -10 11 -80 56 -155 100 -76 43
-220 127 -322 187 -311 182 -449 260 -645 365 -44 24 -97 54 -117 67 -21 12
-40 23 -43 23 -3 0 -62 32 -133 71 -70 40 -149 84 -177 99 -27 15 -122 68
-210 117 -88 50 -223 123 -300 163 -77 40 -145 77 -152 82 -25 20 -98 -16
-203 -101 -58 -47 -107 -88 -110 -91 -3 -3 -34 -30 -70 -60 -36 -30 -72 -62
-80 -70 -38 -39 -139 -117 -304 -235 -99 -70 -185 -132 -191 -139 -57 -55
-245 -219 -315 -276 -30 -25 -60 -49 -66 -55 -38 -34 -75 -63 -181 -141 -65
-48 -177 -136 -250 -196 -133 -110 -163 -123 -163 -73 0 18 31 51 127 132 70
59 137 117 148 128 42 40 167 149 225 196 238 194 355 292 409 343 109 104
115 109 186 171 37 33 89 79 114 101 84 76 185 158 374 303 177 136 187 145
187 177 0 33 -12 48 -96 121 -12 10 -58 52 -104 93 -91 82 -103 93 -151 130
-18 14 -60 47 -93 73 -87 69 -96 109 -25 101 31 -4 50 -17 292 -206 76 -60
148 -108 160 -109 124 -4 296 -10 357 -12 77 -4 101 2 280 68 244 90 646 230
700 245 177 48 320 95 470 153 91 36 170 65 176 66 5 0 18 -5 29 -12z m4865
-2192 c10 -13 8 -22 -16 -56 -35 -51 -47 -59 -160 -108 -49 -21 -154 -70 -234
-109 -80 -38 -167 -80 -195 -92 -27 -12 -99 -47 -160 -77 -60 -30 -184 -87
-275 -126 -91 -39 -203 -92 -249 -119 -46 -26 -85 -48 -87 -48 -14 0 -209 -99
-285 -144 -50 -31 -96 -56 -101 -56 -5 0 -43 -13 -86 -30 -58 -22 -82 -37 -95
-59 -16 -28 -16 -31 27 -152 24 -68 52 -144 63 -169 12 -25 29 -83 38 -130 18
-91 60 -255 75 -295 8 -21 21 -87 45 -220 21 -119 16 -142 -21 -117 -11 7 -44
137 -44 172 0 10 -22 58 -49 107 -48 85 -67 139 -183 507 -52 165 -54 169 -90
187 -49 25 -59 24 -160 -10 -47 -16 -132 -36 -189 -46 -57 -9 -167 -32 -244
-50 -77 -19 -158 -36 -180 -40 -22 -3 -128 -23 -235 -45 -107 -22 -226 -44
-265 -49 -117 -17 -147 -22 -220 -36 -38 -8 -81 -16 -95 -19 -14 -2 -71 -16
-127 -30 -56 -14 -104 -26 -107 -26 -3 0 6 22 21 49 l27 48 111 17 c60 9 153
28 205 42 52 14 147 36 210 49 62 14 148 34 190 46 153 44 216 60 250 65 19 3
62 12 95 20 33 8 69 17 80 19 24 6 142 34 170 41 11 2 99 25 195 50 96 25 182
47 191 49 58 12 258 81 278 96 13 11 28 19 34 19 6 0 18 6 26 14 29 26 201
116 289 152 110 45 192 84 262 125 143 83 479 255 605 311 77 34 201 93 275
131 74 38 178 84 230 103 52 19 102 39 110 44 22 13 36 12 50 -5z m-8422 -388
c70 -50 179 -132 242 -182 63 -49 120 -93 125 -97 41 -32 90 -67 244 -175 97
-67 183 -127 191 -133 86 -62 423 -302 488 -347 45 -32 91 -65 102 -73 103
-81 244 -167 351 -213 68 -30 149 -66 179 -80 78 -36 584 -233 660 -257 64
-21 221 -80 270 -103 131 -60 256 -114 420 -179 239 -94 241 -95 365 -164 111
-62 137 -89 93 -98 -84 -19 -85 -19 -338 95 -135 61 -254 114 -265 119 -66 30
-207 83 -315 120 -135 46 -193 69 -311 124 -42 19 -132 58 -200 86 -68 29
-137 58 -154 65 -52 23 -178 76 -215 90 -19 8 -73 30 -120 49 -56 24 -94 34
-110 31 -17 -4 -44 -33 -85 -91 -90 -129 -115 -168 -115 -182 0 -22 -276 -452
-338 -527 -5 -6 -17 -24 -27 -40 -28 -44 -57 -75 -71 -75 -35 0 -21 43 59 186
118 209 129 230 232 409 50 88 111 195 134 238 l43 78 -16 42 c-14 37 -35 56
-183 161 -141 101 -252 184 -273 206 -19 20 -249 205 -361 291 -75 57 -192
147 -260 199 -68 53 -185 135 -259 184 -187 123 -359 248 -364 266 -3 8 -8 30
-11 49 l-7 34 36 -7 c23 -4 84 -42 164 -99z"/>
</g>
</svg>
